<?xml version="1.0" encoding="UTF-8" standalone="no"?>
<!-- Created with Inkscape (http://www.inkscape.org/) -->

<svg
   xmlns:dc="http://purl.org/dc/elements/1.1/"
   xmlns:cc="http://creativecommons.org/ns#"
   xmlns:rdf="http://www.w3.org/1999/02/22-rdf-syntax-ns#"
   xmlns:svg="http://www.w3.org/2000/svg"
   xmlns="http://www.w3.org/2000/svg"
   xmlns:sodipodi="http://sodipodi.sourceforge.net/DTD/sodipodi-0.dtd"
   xmlns:inkscape="http://www.inkscape.org/namespaces/inkscape"
   width="48px"
   height="48px"
   id="svg3018"
   version="1.1"
   inkscape:version="0.48.0 r9654"
   sodipodi:docname="acerca.svg">
  <defs
     id="defs3020" />
  <sodipodi:namedview
     id="base"
     pagecolor="#ffffff"
     bordercolor="#666666"
     borderopacity="1.0"
     inkscape:pageopacity="0.0"
     inkscape:pageshadow="2"
     inkscape:zoom="7"
     inkscape:cx="24"
     inkscape:cy="18.227614"
     inkscape:current-layer="layer1"
     showgrid="true"
     inkscape:grid-bbox="true"
     inkscape:document-units="px"
     inkscape:window-width="1152"
     inkscape:window-height="808"
     inkscape:window-x="-4"
     inkscape:window-y="-4"
     inkscape:window-maximized="1" />
  <metadata
     id="metadata3023">
    <rdf:RDF>
      <cc:Work
         rdf:about="">
        <dc:format>image/svg+xml</dc:format>
        <dc:type
           rdf:resource="http://purl.org/dc/dcmitype/StillImage" />
        <dc:title />
      </cc:Work>
    </rdf:RDF>
  </metadata>
  <g
     id="layer1"
     inkscape:label="Layer 1"
     inkscape:groupmode="layer">
    <path
       style="fill:#000000;stroke:#ffffff"
       inkscape:connector-curvature="0"
       class="fil0"
       d="m 7.1493771,9.8248131 0.3749493,-0.494402 c 1.5398416,2.1174249 3.2042856,4.1423559 4.9622466,6.0748559 1.572713,1.776437 3.830278,3.091068 6.091256,3.754372 -0.05415,-1.489269 -0.542535,-3.0119 -1.311319,-4.287759 0,0 -0.398772,-0.870476 -1.415138,-2.271752 -1.632108,-2.242027 -3.60733,-4.1755529 -5.707207,-5.9857246 4.206038,-3.514138 8.931229,-5.4436508 14.48357,-5.4145655 5.521375,0.028923 10.226088,2.0078331 14.395083,5.5658427 -2.212193,1.8495305 -5.859335,5.2736764 -7.20749,7.9963444 -0.782431,1.329793 -1.28691,2.878084 -1.326005,4.428924 2.391805,-0.63893 4.694478,-2.022707 6.348097,-3.84419 0,0 2.589518,-2.840398 4.432726,-5.312235 l 0.37472,-0.4942899 c 2.987578,4.0792729 4.609023,8.3994039 4.582214,13.5175649 -0.02714,5.179996 -1.725165,9.545024 -4.879316,13.59201 -1.385725,-1.93055 -2.895846,-3.830552 -4.437145,-5.668885 -1.541095,-1.900165 -3.704702,-3.369398 -6.027738,-4.033026 -0.03871,1.457696 0.418971,2.949079 1.187753,4.224939 0,0 0.39926,0.777558 1.384963,2.054667 1.663909,2.148934 3.639457,4.020514 5.646239,5.799112 -4.206688,3.638254 -9.056258,5.660264 -14.701746,5.630691 -5.707432,-0.0299 -10.59756,-2.133788 -14.796498,-5.909334 2.212355,-1.880615 6.014747,-5.334807 7.45582,-8.057103 0.751247,-1.267898 1.255237,-2.723156 1.231949,-4.212151 -2.329907,0.670116 -4.539989,2.11655 -6.069657,3.969768 0,0 -2.590327,2.995263 -4.4026118,5.49846 L 7.475229,36.4414 C 4.3947852,32.330665 2.7426403,27.979288 2.7696134,22.830153 2.7952873,17.929139 4.4317956,13.439782 7.1493771,9.8248131 z"
       id="path3003" />
    <path
       d="m 7.6804472,10.653271 c -2.3751311,3.368637 -3.8237425,7.486845 -3.8471408,11.953565 -0.023398,4.466721 1.3816654,8.661711 3.7833198,12.05537 1.8116838,-2.410055 4.0899478,-5.003732 4.0899478,-5.003732 1.873092,-2.285726 4.611572,-3.977406 7.530328,-4.520543 0,0 0.180488,1.086823 0.05118,2.078767 -0.09818,0.960904 -0.415345,2.293135 -1.260161,3.684661 0,0 -0.438569,0.835343 -1.593999,2.287189 -1.061524,1.328106 -2.74628,3.180624 -5.301135,5.338547 3.613018,3.08993 8.287251,4.975534 13.43627,5.002506 5.056105,0.02648 9.687501,-1.779397 13.332317,-4.738162 -2.007006,-1.7786 -5.154435,-4.928151 -6.47529,-7.416675 -1.014579,-1.742313 -1.531341,-3.761458 -1.148543,-5.775666 0,0 1.456395,0.286843 2.848785,0.945484 1.392502,0.658753 3.154801,1.784723 4.634158,3.622619 0,0 2.065704,2.399279 3.759495,4.734776 2.468325,-3.399348 3.948123,-7.579225 3.971682,-12.076918 0.0234,-4.466722 -1.350954,-8.568631 -3.721635,-11.962126 -1.811473,2.348107 -4.08891,4.848643 -4.08891,4.848643 -2.059104,2.253666 -4.92144,3.851664 -7.901815,4.332417 0,0 -0.08703,-1.14828 0.04236,-2.171082 0.160292,-0.991781 0.508704,-2.354934 1.353519,-3.746348 0,0 0.407757,-0.866477 1.500968,-2.287562 1.030823,-1.359578 2.653357,-3.1811109 5.114907,-5.3086619 C 34.238839,3.6578803 29.719274,1.8970932 24.787284,1.8712575 19.824212,1.8452585 15.286334,3.5586 11.704224,6.3936866 c 2.099553,1.8721165 5.277528,5.1458344 6.53535,7.8202084 1.045113,1.804647 1.562041,3.79248 1.334006,5.869783 0,0 -1.549103,-0.349388 -2.972626,-0.977331 -1.392784,-0.627668 -3.186383,-1.69163 -4.635791,-3.312327 0,0 -2.467287,-2.711682 -4.2847078,-5.140749 z"
       class="fil1"
       id="_75018024"
       inkscape:connector-curvature="0"
       style="fill:#ffffff;stroke:#000000;stroke-width:1.08953941" />
    <path
       d="m 3.8373057,22.296558 41.6538213,0.218198 6.08e-4,0.310303 c -0.02355,4.497694 -1.503354,8.677571 -3.971679,12.076918 -1.693791,-2.335497 -3.759495,-4.734776 -3.759495,-4.734776 -1.47936,-1.837896 -3.24166,-2.963866 -4.634162,-3.622619 -1.392386,-0.65864 -2.848785,-0.945484 -2.848785,-0.945484 -0.382798,2.014208 0.133968,4.033354 1.148547,5.775666 1.320854,2.488525 4.46828,5.638075 6.47529,7.416675 -3.64482,2.958765 -8.276213,4.764649 -13.332317,4.738163 -5.149023,-0.02698 -9.823255,-1.912576 -13.436273,-5.002507 2.554856,-2.157921 4.239613,-4.010441 5.301136,-5.338546 1.15543,-1.451847 1.593999,-2.287188 1.593999,-2.287188 0.844816,-1.391528 1.16198,-2.723759 1.260162,-3.684663 0.129314,-0.991942 -0.05118,-2.078766 -0.05118,-2.078766 -2.918756,0.543136 -5.657236,2.234816 -7.530328,4.520543 0,0 -2.278265,2.593677 -4.089948,5.003731 C 5.2150847,31.268547 3.810021,27.073557 3.8334193,22.606837 l 0.00399,-0.310279 z"
       class="fil0"
       id="_74804848"
       inkscape:connector-curvature="0"
       style="fill:#000000;stroke:#000000;stroke-width:0.31902444" />
  </g>
</svg>
